<svg width="8" height="8" viewBox="0 0 8 8" fill="none" xmlns="http://www.w3.org/2000/svg">
<path fill-rule="evenodd" clip-rule="evenodd" d="M3.33333 3.33333V0.5C3.33333 0.223858 3.55719 0 3.83333 0C4.10948 0 4.33333 0.223858 4.33333 0.5V3.33333H7.16667C7.44281 3.33333 7.66667 3.55719 7.66667 3.83333C7.66667 4.10948 7.44281 4.33333 7.16667 4.33333H4.33333V7.16667C4.33333 7.44281 4.10948 7.66667 3.83333 7.66667C3.55719 7.66667 3.33333 7.44281 3.33333 7.16667V4.33333H0.5C0.223858 4.33333 0 4.10948 0 3.83333C0 3.55719 0.223858 3.33333 0.5 3.33333H3.33333Z" fill="white"/>
</svg>
